<svg xmlns="http://www.w3.org/2000/svg" xmlns:xlink="http://www.w3.org/1999/xlink" width="1600" height="300" viewBox="0 0 1600 300"><defs><linearGradient id="community_background_image-a" x1="50%" x2="50%" y1="0%" y2="100%"><stop offset="0%" stop-color="#FFF8F2"/><stop offset="100%" stop-color="#FFFBF9"/></linearGradient><polygon id="community_background_image-b" points="0 0 6541 0 6541 4906 0 4906"/><linearGradient id="community_background_image-d" x1="35.744%" x2="73.166%" y1="39.311%" y2="58.09%"><stop offset="0%" stop-color="#FF7D3E"/><stop offset="100%" stop-color="#FF6921"/></linearGradient><linearGradient id="community_background_image-f" x1="67.489%" x2="67.489%" y1="0%" y2="100%"><stop offset="0%" stop-color="#FFF" stop-opacity="0"/><stop offset="100%" stop-color="#FFF" stop-opacity=".4"/></linearGradient><rect id="community_background_image-e" width="1600" height="302" x="2471" y="1931"/><linearGradient id="community_background_image-h" x1="35.744%" x2="73.166%" y1="39.264%" y2="58.126%"><stop offset="0%" stop-color="#FF7D3E"/><stop offset="100%" stop-color="#FF6921"/></linearGradient><linearGradient id="community_background_image-i" x1="35.744%" x2="73.166%" y1="39.295%" y2="58.103%"><stop offset="0%" stop-color="#FF7D3E"/><stop offset="100%" stop-color="#FF6921"/></linearGradient><linearGradient id="community_background_image-j" x1="39.127%" x2="67.669%" y1="17.928%" y2="74.275%"><stop offset="0%" stop-color="#FF7D3E"/><stop offset="100%" stop-color="#E61C27"/></linearGradient><linearGradient id="community_background_image-k" x1="39.292%" x2="67.4%" y1="17.928%" y2="74.275%"><stop offset="0%" stop-color="#FFA17A"/><stop offset="100%" stop-color="#EE5B15"/></linearGradient></defs><g fill="none" fill-rule="evenodd"><rect width="1600" height="300" fill="url(#community_background_image-a)"/><g transform="translate(-2471 -1933)"><g opacity=".08"><mask id="community_background_image-c" fill="#fff"><use xlink:href="#community_background_image-b"/></mask><use fill="#D40051" fill-opacity="0" xlink:href="#community_background_image-b"/><g stroke-linecap="square" mask="url(#community_background_image-c)"><g transform="translate(-5335 -5824)"><g transform="rotate(-30 16601.49 4446.503)"><line x1="2.75" x2="17790.535" y1="5.702" y2="5.702" stroke="#CB4100"/><line x1="2.75" x2="17790.535" y1="70.319" y2="70.319" stroke="#CB4100"/><line x1="2.75" x2="17790.535" y1="134.936" y2="134.936" stroke="#CB4100"/><line x1="2.75" x2="17790.535" y1="199.553" y2="199.553" stroke="#CB4100"/><line x1="2.75" x2="17790.535" y1="264.17" y2="264.17" stroke="#CB4100"/><line x1="2.75" x2="17790.535" y1="328.787" y2="328.787" stroke="#CB4100"/><line x1="2.75" x2="17790.535" y1="393.404" y2="393.404" stroke="#CB4100"/><line x1="2.75" x2="17790.535" y1="458.022" y2="458.022" stroke="#CB4100"/><line x1="2.75" x2="17790.535" y1="522.639" y2="522.639" stroke="#CB4100"/><line x1="2.75" x2="17790.535" y1="587.256" y2="587.256" stroke="#CB4100"/><line x1="2.75" x2="17790.535" y1="651.873" y2="651.873" stroke="#CB4100"/><line x1="2.75" x2="17790.535" y1="716.49" y2="716.49" stroke="#CB4100"/><line x1="2.75" x2="17790.535" y1="781.107" y2="781.107" stroke="#CB4100"/><line x1="2.75" x2="17790.535" y1="845.724" y2="845.724" stroke="#CB4100"/><line x1="2.75" x2="17790.535" y1="910.342" y2="910.342" stroke="#CB4100"/><line x1="2.75" x2="17790.535" y1="974.959" y2="974.959" stroke="#CB4100"/><line x1="2.75" x2="17790.535" y1="1039.576" y2="1039.576" stroke="#CB4100"/><line x1="2.75" x2="17790.535" y1="1104.193" y2="1104.193" stroke="#CB4100"/><line x1="2.75" x2="17790.535" y1="1168.81" y2="1168.81" stroke="#CB4100"/><line x1="2.75" x2="17790.535" y1="1233.427" y2="1233.427" stroke="#CB4100"/><line x1="2.75" x2="17790.535" y1="1298.044" y2="1298.044" stroke="#CB4100"/><line x1="2.75" x2="17790.535" y1="1362.662" y2="1362.662" stroke="#CB4100"/><line x1="2.75" x2="17790.535" y1="1427.279" y2="1427.279" stroke="#CB4100"/><line x1="2.75" x2="17790.535" y1="1491.896" y2="1491.896" stroke="#CB4100"/><line x1="2.75" x2="17790.535" y1="1556.513" y2="1556.513" stroke="#CB4100"/><line x1="2.75" x2="17790.535" y1="1621.13" y2="1621.13" stroke="#CB4100"/><line x1="2.75" x2="17790.535" y1="1685.747" y2="1685.747" stroke="#CB4100"/><line x1="2.75" x2="17790.535" y1="1750.365" y2="1750.365" stroke="#CB4100"/><line x1="2.75" x2="17790.535" y1="1814.982" y2="1814.982" stroke="#CB4100"/><line x1="2.75" x2="17790.535" y1="1879.599" y2="1879.599" stroke="#CB4100"/><line x1="2.75" x2="17790.535" y1="1944.216" y2="1944.216" stroke="#CB4100"/><line x1="2.75" x2="17790.535" y1="2008.833" y2="2008.833" stroke="#CB4100"/><line x1="2.75" x2="17790.535" y1="2073.45" y2="2073.45" stroke="#CB4100"/><line x1="2.75" x2="17790.535" y1="2138.067" y2="2138.067" stroke="#CB4100"/><line x1="2.75" x2="17790.535" y1="2202.685" y2="2202.685" stroke="#CB4100"/><line x1="2.75" x2="17790.535" y1="2267.302" y2="2267.302" stroke="#CB4100"/><line x1="2.75" x2="17790.535" y1="2331.919" y2="2331.919" stroke="#CB4100"/><line x1="2.75" x2="17790.535" y1="2396.536" y2="2396.536" stroke="#CB4100"/><line x1="2.75" x2="17790.535" y1="2461.153" y2="2461.153" stroke="#CB4100"/><line x1="2.75" x2="17790.535" y1="2525.77" y2="2525.77" stroke="#CB4100"/><line x1="2.75" x2="17790.535" y1="2590.387" y2="2590.387" stroke="#CB4100"/><line x1="2.75" x2="17790.535" y1="2655.005" y2="2655.005" stroke="#CB4100"/><line x1="2.75" x2="17790.535" y1="2719.622" y2="2719.622" stroke="#CB4100"/><line x1="2.75" x2="17790.535" y1="2784.239" y2="2784.239" stroke="#CB4100"/><line x1="2.75" x2="17790.535" y1="2848.856" y2="2848.856" stroke="#CB4100"/><line x1="2.75" x2="17790.535" y1="2913.473" y2="2913.473" stroke="#CB4100"/><line x1="2.75" x2="17790.535" y1="2978.09" y2="2978.09" stroke="#CB4100"/><line x1="2.75" x2="17790.535" y1="3042.707" y2="3042.707" stroke="#CB4100"/><line x1="2.75" x2="17790.535" y1="3107.325" y2="3107.325" stroke="#CB4100"/><line x1="2.75" x2="17790.535" y1="3171.942" y2="3171.942" stroke="#CB4100"/><line x1="2.75" x2="17790.535" y1="3236.559" y2="3236.559" stroke="#CB4100"/><line x1="2.75" x2="17790.535" y1="3301.176" y2="3301.176" stroke="#CB4100"/><line x1="2.75" x2="17790.535" y1="3365.793" y2="3365.793" stroke="#CB4100"/><line x1="2.75" x2="17790.535" y1="3430.41" y2="3430.41" stroke="#CB4100"/><line x1="2.75" x2="17790.535" y1="3495.028" y2="3495.028" stroke="#CB4100"/><line x1="2.75" x2="17790.535" y1="3559.645" y2="3559.645" stroke="#CB4100"/><line x1="2.75" x2="17790.535" y1="3624.262" y2="3624.262" stroke="#CB4100"/><line x1="2.75" x2="17790.535" y1="3688.879" y2="3688.879" stroke="#CB4100"/><line x1="2.75" x2="17790.535" y1="3753.496" y2="3753.496" stroke="#CB4100"/><line x1="2.75" x2="17790.535" y1="3818.113" y2="3818.113" stroke="#CB4100"/><line x1="2.75" x2="17790.535" y1="3882.73" y2="3882.73" stroke="#CB4100"/><line x1="2.75" x2="17790.535" y1="3947.348" y2="3947.348" stroke="#CB4100"/><line x1="2.75" x2="17790.535" y1="4011.965" y2="4011.965" stroke="#CB4100"/><line x1="2.75" x2="17790.535" y1="4076.582" y2="4076.582" stroke="#CB4100"/><line x1="2.75" x2="17790.535" y1="4141.199" y2="4141.199" stroke="#CB4100"/><line x1="2.75" x2="17790.535" y1="4205.816" y2="4205.816" stroke="#CB4100"/><line x1="2.75" x2="17790.535" y1="4270.433" y2="4270.433" stroke="#CB4100"/><line x1="2.75" x2="17790.535" y1="4335.05" y2="4335.05" stroke="#CB4100"/><line x1="2.75" x2="17790.535" y1="4399.668" y2="4399.668" stroke="#CB4100"/><line x1="2.75" x2="17790.535" y1="4464.285" y2="4464.285" stroke="#CB4100"/><line x1="2.75" x2="17790.535" y1="4528.902" y2="4528.902" stroke="#CB4100"/><line x1="2.75" x2="17790.535" y1="4593.519" y2="4593.519" stroke="#CB4100"/><line x1="2.75" x2="17790.535" y1="4658.136" y2="4658.136" stroke="#CB4100"/><line x1="2.75" x2="17790.535" y1="4722.753" y2="4722.753" stroke="#CB4100"/><line x1="2.75" x2="17790.535" y1="4787.37" y2="4787.37" stroke="#CB4100"/><line x1="2.75" x2="17790.535" y1="4851.988" y2="4851.988" stroke="#CB4100"/><line x1="2.75" x2="17790.535" y1="4916.605" y2="4916.605" stroke="#CB4100"/><line x1="2.75" x2="17790.535" y1="4981.222" y2="4981.222" stroke="#CB4100"/><line x1="2.75" x2="17790.535" y1="5045.839" y2="5045.839" stroke="#CB4100"/><line x1="2.75" x2="17790.535" y1="5110.456" y2="5110.456" stroke="#CB4100"/><line x1="2.75" x2="17790.535" y1="5175.073" y2="5175.073" stroke="#CB4100"/><line x1="2.75" x2="17790.535" y1="5239.691" y2="5239.691" stroke="#CB4100"/><line x1="2.75" x2="17790.535" y1="5304.308" y2="5304.308" stroke="#CB4100"/><line x1="2.75" x2="17790.535" y1="5368.925" y2="5368.925" stroke="#CB4100"/><line x1="2.75" x2="17790.535" y1="5433.542" y2="5433.542" stroke="#CB4100"/><line x1="2.75" x2="17790.535" y1="5498.159" y2="5498.159" stroke="#CB4100"/><line x1="2.75" x2="17790.535" y1="5562.776" y2="5562.776" stroke="#CB4100"/><line x1="2.75" x2="17790.535" y1="5627.393" y2="5627.393" stroke="#CB4100"/><line x1="2.75" x2="17790.535" y1="5692.011" y2="5692.011" stroke="#CB4100"/><line x1="2.75" x2="17790.535" y1="5756.628" y2="5756.628" stroke="#CB4100"/><line x1="2.75" x2="17790.535" y1="5821.245" y2="5821.245" stroke="#CB4100"/><line x1="2.75" x2="17790.535" y1="5885.862" y2="5885.862" stroke="#CB4100"/><line x1="2.75" x2="17790.535" y1="5950.479" y2="5950.479" stroke="#CB4100"/><line x1="2.75" x2="17790.535" y1="6015.096" y2="6015.096" stroke="#CB4100"/><line x1="2.75" x2="17790.535" y1="6079.713" y2="6079.713" stroke="#CB4100"/><line x1="2.75" x2="17790.535" y1="6144.331" y2="6144.331" stroke="#CB4100"/><line x1="2.75" x2="17790.535" y1="6208.948" y2="6208.948" stroke="#CB4100"/><line x1="2.75" x2="17790.535" y1="6273.565" y2="6273.565" stroke="#CB4100"/><line x1="2.75" x2="17790.535" y1="6338.182" y2="6338.182" stroke="#CB4100"/><line x1="2.75" x2="17790.535" y1="6402.799" y2="6402.799" stroke="#CB4100"/><line x1="2.75" x2="17790.535" y1="6467.416" y2="6467.416" stroke="#CB4100"/><line x1="2.75" x2="17790.535" y1="6532.033" y2="6532.033" stroke="#CB4100"/><line x1="2.75" x2="17790.535" y1="6596.651" y2="6596.651" stroke="#CB4100"/><line x1="2.75" x2="17790.535" y1="6661.268" y2="6661.268" stroke="#CB4100"/><line x1="2.75" x2="17790.535" y1="6725.885" y2="6725.885" stroke="#CB4100"/><line x1="2.75" x2="17790.535" y1="6790.502" y2="6790.502" stroke="#CB4100"/><line x1="2.75" x2="17790.535" y1="6855.119" y2="6855.119" stroke="#CB4100"/><line x1="2.75" x2="17790.535" y1="6919.736" y2="6919.736" stroke="#CB4100"/><line x1="2.75" x2="17790.535" y1="6984.354" y2="6984.354" stroke="#CB4100"/><line x1="2.75" x2="17790.535" y1="7048.971" y2="7048.971" stroke="#CB4100"/><line x1="2.75" x2="17790.535" y1="7113.588" y2="7113.588" stroke="#CB4100"/><line x1="2.75" x2="17790.535" y1="7178.205" y2="7178.205" stroke="#CB4100"/><line x1="2.75" x2="17790.535" y1="7242.822" y2="7242.822" stroke="#CB4100"/><line x1="2.75" x2="17790.535" y1="7307.439" y2="7307.439" stroke="#CB4100"/><line x1="2.75" x2="17790.535" y1="7372.056" y2="7372.056" stroke="#CB4100"/><line x1="2.75" x2="17790.535" y1="7436.674" y2="7436.674" stroke="#CB4100"/><line x1="2.75" x2="17790.535" y1="7501.291" y2="7501.291" stroke="#CB4100"/><line x1="2.75" x2="17790.535" y1="7565.908" y2="7565.908" stroke="#CB4100"/><line x1="2.75" x2="17790.535" y1="7630.525" y2="7630.525" stroke="#CB4100"/><line x1="2.75" x2="17790.535" y1="7695.142" y2="7695.142" stroke="#CB4100"/><line x1="2.75" x2="17790.535" y1="7759.759" y2="7759.759" stroke="#CB4100"/><line x1="2.75" x2="17790.535" y1="7824.376" y2="7824.376" stroke="#CB4100"/><line x1="2.75" x2="17790.535" y1="7888.994" y2="7888.994" stroke="#CB4100"/><line x1="2.75" x2="17790.535" y1="7953.611" y2="7953.611" stroke="#CB4100"/><line x1="2.75" x2="17790.535" y1="8018.228" y2="8018.228" stroke="#CB4100"/><line x1="2.75" x2="17790.535" y1="8082.845" y2="8082.845" stroke="#CB4100"/><line x1="2.75" x2="17790.535" y1="8147.462" y2="8147.462" stroke="#CB4100"/><line x1="2.75" x2="17790.535" y1="8212.079" y2="8212.079" stroke="#CB4100"/><line x1="2.75" x2="17790.535" y1="8276.696" y2="8276.696" stroke="#CB4100"/><line x1="2.75" x2="17790.535" y1="8341.314" y2="8341.314" stroke="#CB4100"/><line x1="2.75" x2="17790.535" y1="8405.931" y2="8405.931" stroke="#CB4100"/><line x1="2.75" x2="17790.535" y1="8470.548" y2="8470.548" stroke="#CB4100"/><line x1="2.75" x2="17790.535" y1="8535.165" y2="8535.165" stroke="#CB4100"/><line x1="2.75" x2="17790.535" y1="8599.782" y2="8599.782" stroke="#CB4100"/><line x1="2.75" x2="17790.535" y1="8664.399" y2="8664.399" stroke="#CB4100"/><line x1="2.75" x2="17790.535" y1="8729.017" y2="8729.017" stroke="#CB4100"/><line x1="2.75" x2="17790.535" y1="8793.634" y2="8793.634" stroke="#CB4100"/><line x1="2.75" x2="17790.535" y1="8858.251" y2="8858.251" stroke="#CB4100"/></g><g transform="rotate(-150 9924.393 6222.142)"><line x1="2.75" x2="17790.535" y1="5.702" y2="5.702" stroke="#CB4100"/><line x1="2.75" x2="17790.535" y1="70.319" y2="70.319" stroke="#CB4100"/><line x1="2.75" x2="17790.535" y1="134.936" y2="134.936" stroke="#CB4100"/><line x1="2.75" x2="17790.535" y1="199.553" y2="199.553" stroke="#CB4100"/><line x1="2.75" x2="17790.535" y1="264.17" y2="264.17" stroke="#CB4100"/><line x1="2.75" x2="17790.535" y1="328.787" y2="328.787" stroke="#CB4100"/><line x1="2.75" x2="17790.535" y1="393.404" y2="393.404" stroke="#CB4100"/><line x1="2.75" x2="17790.535" y1="458.022" y2="458.022" stroke="#CB4100"/><line x1="2.75" x2="17790.535" y1="522.639" y2="522.639" stroke="#CB4100"/><line x1="2.75" x2="17790.535" y1="587.256" y2="587.256" stroke="#CB4100"/><line x1="2.75" x2="17790.535" y1="651.873" y2="651.873" stroke="#CB4100"/><line x1="2.75" x2="17790.535" y1="716.49" y2="716.49" stroke="#CB4100"/><line x1="2.75" x2="17790.535" y1="781.107" y2="781.107" stroke="#CB4100"/><line x1="2.75" x2="17790.535" y1="845.724" y2="845.724" stroke="#CB4100"/><line x1="2.75" x2="17790.535" y1="910.342" y2="910.342" stroke="#CB4100"/><line x1="2.75" x2="17790.535" y1="974.959" y2="974.959" stroke="#CB4100"/><line x1="2.75" x2="17790.535" y1="1039.576" y2="1039.576" stroke="#CB4100"/><line x1="2.75" x2="17790.535" y1="1104.193" y2="1104.193" stroke="#CB4100"/><line x1="2.75" x2="17790.535" y1="1168.81" y2="1168.81" stroke="#CB4100"/><line x1="2.75" x2="17790.535" y1="1233.427" y2="1233.427" stroke="#CB4100"/><line x1="2.75" x2="17790.535" y1="1298.044" y2="1298.044" stroke="#CB4100"/><line x1="2.75" x2="17790.535" y1="1362.662" y2="1362.662" stroke="#CB4100"/><line x1="2.75" x2="17790.535" y1="1427.279" y2="1427.279" stroke="#CB4100"/><line x1="2.75" x2="17790.535" y1="1491.896" y2="1491.896" stroke="#CB4100"/><line x1="2.75" x2="17790.535" y1="1556.513" y2="1556.513" stroke="#CB4100"/><line x1="2.75" x2="17790.535" y1="1621.13" y2="1621.13" stroke="#CB4100"/><line x1="2.75" x2="17790.535" y1="1685.747" y2="1685.747" stroke="#CB4100"/><line x1="2.75" x2="17790.535" y1="1750.365" y2="1750.365" stroke="#CB4100"/><line x1="2.75" x2="17790.535" y1="1814.982" y2="1814.982" stroke="#CB4100"/><line x1="2.75" x2="17790.535" y1="1879.599" y2="1879.599" stroke="#CB4100"/><line x1="2.75" x2="17790.535" y1="1944.216" y2="1944.216" stroke="#CB4100"/><line x1="2.75" x2="17790.535" y1="2008.833" y2="2008.833" stroke="#CB4100"/><line x1="2.75" x2="17790.535" y1="2073.45" y2="2073.45" stroke="#CB4100"/><line x1="2.75" x2="17790.535" y1="2138.067" y2="2138.067" stroke="#CB4100"/><line x1="2.75" x2="17790.535" y1="2202.685" y2="2202.685" stroke="#CB4100"/><line x1="2.75" x2="17790.535" y1="2267.302" y2="2267.302" stroke="#CB4100"/><line x1="2.75" x2="17790.535" y1="2331.919" y2="2331.919" stroke="#CB4100"/><line x1="2.75" x2="17790.535" y1="2396.536" y2="2396.536" stroke="#CB4100"/><line x1="2.75" x2="17790.535" y1="2461.153" y2="2461.153" stroke="#CB4100"/><line x1="2.75" x2="17790.535" y1="2525.77" y2="2525.77" stroke="#CB4100"/><line x1="2.75" x2="17790.535" y1="2590.387" y2="2590.387" stroke="#CB4100"/><line x1="2.75" x2="17790.535" y1="2655.005" y2="2655.005" stroke="#CB4100"/><line x1="2.75" x2="17790.535" y1="2719.622" y2="2719.622" stroke="#CB4100"/><line x1="2.75" x2="17790.535" y1="2784.239" y2="2784.239" stroke="#CB4100"/><line x1="2.75" x2="17790.535" y1="2848.856" y2="2848.856" stroke="#CB4100"/><line x1="2.75" x2="17790.535" y1="2913.473" y2="2913.473" stroke="#CB4100"/><line x1="2.75" x2="17790.535" y1="2978.09" y2="2978.09" stroke="#CB4100"/><line x1="2.75" x2="17790.535" y1="3042.707" y2="3042.707" stroke="#CB4100"/><line x1="2.75" x2="17790.535" y1="3107.325" y2="3107.325" stroke="#CB4100"/><line x1="2.75" x2="17790.535" y1="3171.942" y2="3171.942" stroke="#CB4100"/><line x1="2.75" x2="17790.535" y1="3236.559" y2="3236.559" stroke="#CB4100"/><line x1="2.75" x2="17790.535" y1="3301.176" y2="3301.176" stroke="#CB4100"/><line x1="2.75" x2="17790.535" y1="3365.793" y2="3365.793" stroke="#CB4100"/><line x1="2.75" x2="17790.535" y1="3430.41" y2="3430.41" stroke="#CB4100"/><line x1="2.75" x2="17790.535" y1="3495.028" y2="3495.028" stroke="#CB4100"/><line x1="2.75" x2="17790.535" y1="3559.645" y2="3559.645" stroke="#CB4100"/><line x1="2.75" x2="17790.535" y1="3624.262" y2="3624.262" stroke="#CB4100"/><line x1="2.75" x2="17790.535" y1="3688.879" y2="3688.879" stroke="#CB4100"/><line x1="2.75" x2="17790.535" y1="3753.496" y2="3753.496" stroke="#CB4100"/><line x1="2.75" x2="17790.535" y1="3818.113" y2="3818.113" stroke="#CB4100"/><line x1="2.75" x2="17790.535" y1="3882.73" y2="3882.73" stroke="#CB4100"/><line x1="2.75" x2="17790.535" y1="3947.348" y2="3947.348" stroke="#CB4100"/><line x1="2.75" x2="17790.535" y1="4011.965" y2="4011.965" stroke="#CB4100"/><line x1="2.75" x2="17790.535" y1="4076.582" y2="4076.582" stroke="#CB4100"/><line x1="2.75" x2="17790.535" y1="4141.199" y2="4141.199" stroke="#CB4100"/><line x1="2.75" x2="17790.535" y1="4205.816" y2="4205.816" stroke="#CB4100"/><line x1="2.75" x2="17790.535" y1="4270.433" y2="4270.433" stroke="#CB4100"/><line x1="2.75" x2="17790.535" y1="4335.05" y2="4335.05" stroke="#CB4100"/><line x1="2.75" x2="17790.535" y1="4399.668" y2="4399.668" stroke="#CB4100"/><line x1="2.75" x2="17790.535" y1="4464.285" y2="4464.285" stroke="#CB4100"/><line x1="2.75" x2="17790.535" y1="4528.902" y2="4528.902" stroke="#CB4100"/><line x1="2.75" x2="17790.535" y1="4593.519" y2="4593.519" stroke="#CB4100"/><line x1="2.75" x2="17790.535" y1="4658.136" y2="4658.136" stroke="#CB4100"/><line x1="2.75" x2="17790.535" y1="4722.753" y2="4722.753" stroke="#CB4100"/><line x1="2.75" x2="17790.535" y1="4787.37" y2="4787.37" stroke="#CB4100"/><line x1="2.75" x2="17790.535" y1="4851.988" y2="4851.988" stroke="#CB4100"/><line x1="2.75" x2="17790.535" y1="4916.605" y2="4916.605" stroke="#CB4100"/><line x1="2.75" x2="17790.535" y1="4981.222" y2="4981.222" stroke="#CB4100"/><line x1="2.75" x2="17790.535" y1="5045.839" y2="5045.839" stroke="#CB4100"/><line x1="2.75" x2="17790.535" y1="5110.456" y2="5110.456" stroke="#CB4100"/><line x1="2.75" x2="17790.535" y1="5175.073" y2="5175.073" stroke="#CB4100"/><line x1="2.75" x2="17790.535" y1="5239.691" y2="5239.691" stroke="#CB4100"/><line x1="2.75" x2="17790.535" y1="5304.308" y2="5304.308" stroke="#CB4100"/><line x1="2.75" x2="17790.535" y1="5368.925" y2="5368.925" stroke="#CB4100"/><line x1="2.75" x2="17790.535" y1="5433.542" y2="5433.542" stroke="#CB4100"/><line x1="2.75" x2="17790.535" y1="5498.159" y2="5498.159" stroke="#CB4100"/><line x1="2.75" x2="17790.535" y1="5562.776" y2="5562.776" stroke="#CB4100"/><line x1="2.75" x2="17790.535" y1="5627.393" y2="5627.393" stroke="#CB4100"/><line x1="2.75" x2="17790.535" y1="5692.011" y2="5692.011" stroke="#CB4100"/><line x1="2.75" x2="17790.535" y1="5756.628" y2="5756.628" stroke="#CB4100"/><line x1="2.75" x2="17790.535" y1="5821.245" y2="5821.245" stroke="#CB4100"/><line x1="2.75" x2="17790.535" y1="5885.862" y2="5885.862" stroke="#CB4100"/><line x1="2.75" x2="17790.535" y1="5950.479" y2="5950.479" stroke="#CB4100"/><line x1="2.75" x2="17790.535" y1="6015.096" y2="6015.096" stroke="#CB4100"/><line x1="2.75" x2="17790.535" y1="6079.713" y2="6079.713" stroke="#CB4100"/><line x1="2.75" x2="17790.535" y1="6144.331" y2="6144.331" stroke="#CB4100"/><line x1="2.75" x2="17790.535" y1="6208.948" y2="6208.948" stroke="#CB4100"/><line x1="2.75" x2="17790.535" y1="6273.565" y2="6273.565" stroke="#CB4100"/><line x1="2.75" x2="17790.535" y1="6338.182" y2="6338.182" stroke="#CB4100"/><line x1="2.75" x2="17790.535" y1="6402.799" y2="6402.799" stroke="#CB4100"/><line x1="2.75" x2="17790.535" y1="6467.416" y2="6467.416" stroke="#CB4100"/><line x1="2.75" x2="17790.535" y1="6532.033" y2="6532.033" stroke="#CB4100"/><line x1="2.75" x2="17790.535" y1="6596.651" y2="6596.651" stroke="#CB4100"/><line x1="2.75" x2="17790.535" y1="6661.268" y2="6661.268" stroke="#CB4100"/><line x1="2.75" x2="17790.535" y1="6725.885" y2="6725.885" stroke="#CB4100"/><line x1="2.75" x2="17790.535" y1="6790.502" y2="6790.502" stroke="#CB4100"/><line x1="2.75" x2="17790.535" y1="6855.119" y2="6855.119" stroke="#CB4100"/><line x1="2.75" x2="17790.535" y1="6919.736" y2="6919.736" stroke="#CB4100"/><line x1="2.75" x2="17790.535" y1="6984.354" y2="6984.354" stroke="#CB4100"/><line x1="2.75" x2="17790.535" y1="7048.971" y2="7048.971" stroke="#CB4100"/><line x1="2.75" x2="17790.535" y1="7113.588" y2="7113.588" stroke="#CB4100"/><line x1="2.75" x2="17790.535" y1="7178.205" y2="7178.205" stroke="#CB4100"/><line x1="2.75" x2="17790.535" y1="7242.822" y2="7242.822" stroke="#CB4100"/><line x1="2.75" x2="17790.535" y1="7307.439" y2="7307.439" stroke="#CB4100"/><line x1="2.75" x2="17790.535" y1="7372.056" y2="7372.056" stroke="#CB4100"/><line x1="2.75" x2="17790.535" y1="7436.674" y2="7436.674" stroke="#CB4100"/><line x1="2.75" x2="17790.535" y1="7501.291" y2="7501.291" stroke="#CB4100"/><line x1="2.75" x2="17790.535" y1="7565.908" y2="7565.908" stroke="#CB4100"/><line x1="2.75" x2="17790.535" y1="7630.525" y2="7630.525" stroke="#CB4100"/><line x1="2.75" x2="17790.535" y1="7695.142" y2="7695.142" stroke="#CB4100"/><line x1="2.75" x2="17790.535" y1="7759.759" y2="7759.759" stroke="#CB4100"/><line x1="2.75" x2="17790.535" y1="7824.376" y2="7824.376" stroke="#CB4100"/><line x1="2.75" x2="17790.535" y1="7888.994" y2="7888.994" stroke="#CB4100"/><line x1="2.75" x2="17790.535" y1="7953.611" y2="7953.611" stroke="#CB4100"/><line x1="2.75" x2="17790.535" y1="8018.228" y2="8018.228" stroke="#CB4100"/><line x1="2.75" x2="17790.535" y1="8082.845" y2="8082.845" stroke="#CB4100"/><line x1="2.75" x2="17790.535" y1="8147.462" y2="8147.462" stroke="#CB4100"/><line x1="2.75" x2="17790.535" y1="8212.079" y2="8212.079" stroke="#CB4100"/><line x1="2.75" x2="17790.535" y1="8276.696" y2="8276.696" stroke="#CB4100"/><line x1="2.75" x2="17790.535" y1="8341.314" y2="8341.314" stroke="#CB4100"/><line x1="2.75" x2="17790.535" y1="8405.931" y2="8405.931" stroke="#CB4100"/><line x1="2.75" x2="17790.535" y1="8470.548" y2="8470.548" stroke="#CB4100"/><line x1="2.75" x2="17790.535" y1="8535.165" y2="8535.165" stroke="#CB4100"/><line x1="2.75" x2="17790.535" y1="8599.782" y2="8599.782" stroke="#CB4100"/><line x1="2.75" x2="17790.535" y1="8664.399" y2="8664.399" stroke="#CB4100"/><line x1="2.75" x2="17790.535" y1="8729.017" y2="8729.017" stroke="#CB4100"/><line x1="2.75" x2="17790.535" y1="8793.634" y2="8793.634" stroke="#CB4100"/><line x1="2.75" x2="17790.535" y1="8858.251" y2="8858.251" stroke="#CB4100"/></g></g></g></g><g transform="translate(3130 2070)"><path stroke="url(#community_background_image-d)" d="M227.661493,20.197972 L33.8929506,132.134751 L98.4112333,169.277576 L292.131792,57.4068647 L227.661493,20.197972 Z" opacity=".7"/><g stroke="#FF7D3E" opacity=".4" transform="translate(.931)"><path d="M129.686928,76.3967173 L64.9810481,113.754674 L258.297659,225.337127 L323.05991,187.946624 L129.686928,76.3967173 Z" transform="rotate(-60 194.02 150.867)"/><path d="M65.2143236,150.852835 L1.1377397,188.085892 L65.395946,225.028212 L129.665564,188.063776 L65.2143236,150.852835 Z" transform="rotate(60 65.403 187.94)"/></g></g><mask id="community_background_image-g" fill="#fff"><use xlink:href="#community_background_image-e"/></mask><use fill="url(#community_background_image-f)" xlink:href="#community_background_image-e"/><g mask="url(#community_background_image-g)" opacity=".4"><g transform="matrix(-1 0 0 1 2939 1995)"><path stroke="url(#community_background_image-h)" d="M227.542427,20.0775257 L33.8317364,132.028232 L98.3103902,169.337279 L291.807983,57.2343259 L227.542427,20.0775257 Z" opacity=".7"/><g opacity=".4" transform="translate(.931)"><path stroke="#FF6921" d="M130.077949,76.3618388 L65.2632586,113.036087 L258.560887,224.905266 L323.499959,187.412676 L130.077949,76.3618388 Z" transform="rotate(-60 194.38 150.635)"/><path stroke="#FC5159" d="M66.2172713,150.387999 L1.40559037,188.240541 L65.6657108,225.18396 L129.945704,188.213557 L66.2172713,150.387999 Z" transform="rotate(60 65.673 187.784)"/></g></g></g><path stroke="url(#community_background_image-i)" d="M3873.91477,1791.46716 L3486.18627,2015.33042 L3615.46607,2089.92163 L4002.7757,1866.02812 L3873.91477,1791.46716 Z" mask="url(#community_background_image-g)" opacity=".3"/><g mask="url(#community_background_image-g)"><g transform="translate(3743.592 2014)"><path stroke="url(#community_background_image-j)" d="M130.908,0.868361761 L1.4143535,76.0346732 L130.908,149.14353 L130.908,0.868361761 Z" opacity=".3"/><path stroke="url(#community_background_image-k)" d="M259.908,0.871718311 L131.408573,76.0346847 L259.908,149.140287 L259.908,0.871718311 Z" opacity=".7" transform="matrix(-1 0 0 1 390.816 0)"/></g></g></g></g></svg>