<svg xmlns="http://www.w3.org/2000/svg" xmlns:xlink="http://www.w3.org/1999/xlink" width="496" height="190" viewBox="0 0 496 190"><defs><circle id="community_image-a" cx="72" cy="72" r="72"/><linearGradient id="community_image-c" x1="16.503%" x2="81.292%" y1="36.88%" y2="56.124%"><stop offset="0%" stop-color="#FF6920"/><stop offset="100%" stop-color="#FF702B"/></linearGradient><linearGradient id="community_image-d" x1="21.248%" x2="85.043%" y1="9.81%" y2="90.19%"><stop offset="0%" stop-color="#FF8E5E"/><stop offset="100%" stop-color="#FFA27B"/></linearGradient></defs><g fill="none" fill-rule="evenodd" transform="translate(176 23)"><mask id="community_image-b" fill="#fff"><use xlink:href="#community_image-a"/></mask><use fill="#FFEBDB" xlink:href="#community_image-a"/><g fill-rule="nonzero" mask="url(#community_image-b)"><g transform="translate(10.286 20.571)"><path fill="url(#community_image-c)" d="M85.4948374,120.694098 C85.640732,121.450426 85.5623824,122.278849 85.2842055,122.921195 C85.0292101,123.510012 84.6347224,123.876852 84.2073658,123.930959 L84.0900791,123.937894 L41.9060145,123.937894 C41.4967062,123.93648 41.1119735,123.608369 40.8688147,123.053312 C40.6256559,122.498255 40.552808,121.78185 40.6724242,121.121957 C43.6658908,104.543875 52.7108896,93.1795132 62.9901654,93.0813909 C73.2694411,92.9832686 82.3901999,104.174226 85.4948374,120.694098 Z M22.443205,93.0874464 C27.7348832,93.0907493 32.866645,95.7407547 36.9865848,100.597545 C37.560989,101.266221 37.7119098,102.450776 37.3407255,103.377144 C35.7462484,107.335337 34.5512845,111.607973 33.7919129,116.062463 L33.6458571,116.955747 L33.4628844,118.155636 C33.317758,119.079108 32.779864,119.748979 32.1431769,119.823409 L32.0227121,119.830304 L1.46626842,119.830304 C1.00181681,119.830304 0.564470241,119.510488 0.285799279,118.967072 C0.00824955148,118.409163 -0.0727194527,117.692249 0.0674124884,117.033438 C3.16651909,102.778655 12.2156366,93.0945251 22.443205,93.0874464 Z M103.018902,93.0874448 C113.258366,93.0818774 122.320738,102.770699 125.418304,117.035241 C125.558436,117.693627 125.477467,118.410078 125.199917,118.967627 C124.94658,119.461323 124.562106,119.770345 124.145345,119.82245 L124.019448,119.830302 L96.278423,119.830302 C95.630535,119.831636 95.0630668,119.216563 94.8699928,118.326701 L94.8382506,118.156715 L94.6552779,116.9576 C93.7807473,111.437989 92.2267602,106.196821 90.0691553,101.489879 C89.8505731,101.008865 89.7736994,100.419481 89.8558737,99.8546682 C89.938048,99.2898551 90.172349,98.7971834 90.5059289,98.4877781 C94.2347042,94.9660396 98.5793428,93.0909867 103.018902,93.0874448 Z M22.443205,59.6571437 C30.3840181,59.6571437 36.8213191,65.9892445 36.8213191,73.8002867 C36.8213191,81.6113289 30.3840181,87.9434297 22.443205,87.9434297 C14.5023919,87.9434297 8.0650909,81.6113289 8.0650909,73.8002867 C8.0650909,65.9892445 14.5023919,59.6571437 22.443205,59.6571437 Z M103.018902,59.6571437 C110.959715,59.6571437 117.397016,65.9892445 117.397016,73.8002867 C117.397016,81.6113289 110.959715,87.9434297 103.018902,87.9434297 C95.0780886,87.9434297 88.6407877,81.6113289 88.6407877,73.8002867 C88.6407877,65.9892445 95.0780886,59.6571437 103.018902,59.6571437 Z M76.0525785,67.6934493 C79.1356395,73.9862378 77.0774823,81.5507645 71.2111608,85.4875391 C68.8277424,87.0865694 66.0099508,87.9423702 63.1249473,87.9434301 C56.023457,87.945152 49.9880381,82.8387519 48.9277886,75.9316087 C47.8675391,69.0244654 52.1011692,62.3928617 58.8865869,60.3320401 C65.6720045,58.2712185 72.9695175,61.4006608 76.0525785,67.6934493 Z"/><path fill="url(#community_image-d)" fill-opacity=".6" d="M92.57143,6.46623637 C92.5742998,4.75294147 91.909446,3.10875907 90.7233223,1.89589188 C89.5371986,0.683024693 87.9271156,0.000977564546 86.2477644,0 L39.2451736,0 C37.5664504,-0.000977605507 35.9561551,0.678686572 34.7687793,1.88937174 C33.5814036,3.1000569 32.9142862,4.74251372 32.9142862,6.45517036 L32.9142862,31.3721239 C32.9171212,35.0417303 34.3475756,38.5601367 36.8914285,41.1544719 L48.1720503,52.6741826 C48.6796509,53.1938387 49.3692089,53.4857151 50.0883098,53.4857151 C50.4445171,53.4872649 50.7973995,53.4157636 51.1259823,53.2754355 C52.1406983,52.8488192 52.8020845,51.8388725 52.7999977,50.7191885 L52.7999977,40.575351 C52.7999977,39.5567534 53.6093737,38.7310169 54.6077896,38.7310169 L86.2441488,38.7310169 C87.9225397,38.7319962 89.5324638,38.0522145 90.7192656,36.841423 C91.9060674,35.6306316 92.5723805,33.988165 92.57143,32.2758476 L92.57143,6.46623637 Z"/></g></g></g></svg>